<?xml version="1.0" ?><svg enable-background="new 0 0 100 100" height="100px" id="learn" version="1.1" viewBox="0 0 100 100" width="100px" xml:space="preserve" xmlns="http://www.w3.org/2000/svg" xmlns:xlink="http://www.w3.org/1999/xlink"><path d="M50,60.348l8.249,14.287H41.751L50,60.348 M50,40.347L24.431,84.635h51.139L50,40.347L50,40.347z"/><path d="M50,25.365c1.373,0,2.49,1.117,2.49,2.491c0,1.373-1.117,2.49-2.49,2.49s-2.49-1.117-2.49-2.49  C47.51,26.482,48.627,25.365,50,25.365 M50,15.365c-6.898,0-12.49,5.593-12.49,12.491c0,6.897,5.592,12.49,12.49,12.49  s12.49-5.593,12.49-12.49C62.49,20.958,56.898,15.365,50,15.365L50,15.365z"/></svg>